<?xml version="1.0" encoding="utf-8"?>
<!-- Generator: Adobe Illustrator 19.2.1, SVG Export Plug-In . SVG Version: 6.00 Build 0)  -->
<svg version="1.1" id="Layer_1" xmlns="http://www.w3.org/2000/svg" xmlns:xlink="http://www.w3.org/1999/xlink" x="0px" y="0px"
	 viewBox="0 0 100 100" style="enable-background:new 0 0 100 100;" xml:space="preserve">
<style type="text/css">
	.st0{fill:#FF5A5A;}
</style>
<circle class="st0" cx="50.9" cy="13.1" r="10.2"/>
<g>
	<g>
		<path class="st0" d="M49.4,16c0,27,0,53.9,0,80.9c0,1.9,3,1.9,3,0c0-27,0-53.9,0-80.9C52.4,14.1,49.4,14.1,49.4,16L49.4,16z"/>
	</g>
</g>
<g>
	<g>
		<path class="st0" d="M52,98.5c6.2-6.2,12.4-12.4,18.6-18.6c1.4-1.4-0.8-3.5-2.1-2.1C62.3,84,56.1,90.2,49.9,96.4
			C48.5,97.8,50.6,99.9,52,98.5L52,98.5z"/>
	</g>
</g>
<g>
	<g>
		<path class="st0" d="M52,96.4C45.8,90.2,39.6,84,33.4,77.8c-1.4-1.4-3.5,0.8-2.1,2.1c6.2,6.2,12.4,12.4,18.6,18.6
			C51.2,99.9,53.4,97.8,52,96.4L52,96.4z"/>
	</g>
</g>
</svg>
