<?xml version="1.0" encoding="utf-8"?>
<!-- Generator: Adobe Illustrator 19.2.1, SVG Export Plug-In . SVG Version: 6.00 Build 0)  -->
<svg version="1.1" id="Layer_1" xmlns="http://www.w3.org/2000/svg" xmlns:xlink="http://www.w3.org/1999/xlink" x="0px" y="0px"
	 viewBox="0 0 100 100" style="enable-background:new 0 0 100 100;" xml:space="preserve">
<style type="text/css">
	.st0{fill:#FF5A5A;}
</style>
<circle class="st0" cx="13.9" cy="50.2" r="10.2"/>
<g>
	<g>
		<path class="st0" d="M16.7,51.7c27,0,53.9,0,80.9,0c1.9,0,1.9-3,0-3c-27,0-53.9,0-80.9,0C14.8,48.7,14.8,51.7,16.7,51.7L16.7,51.7
			z"/>
	</g>
</g>
<g>
	<g>
		<path class="st0" d="M99.3,49.1c-6.2-6.2-12.4-12.4-18.6-18.6c-1.4-1.4-3.5,0.8-2.1,2.1C84.7,38.8,91,45,97.2,51.2
			C98.5,52.6,100.6,50.5,99.3,49.1L99.3,49.1z"/>
	</g>
</g>
<g>
	<g>
		<path class="st0" d="M97.2,49.1C91,55.3,84.7,61.5,78.5,67.7c-1.4,1.4,0.8,3.5,2.1,2.1c6.2-6.2,12.4-12.4,18.6-18.6
			C100.6,49.9,98.5,47.8,97.2,49.1L97.2,49.1z"/>
	</g>
</g>
</svg>
