<?xml version="1.0" encoding="utf-8"?>
<!-- Generator: Adobe Illustrator 19.2.1, SVG Export Plug-In . SVG Version: 6.00 Build 0)  -->
<svg version="1.1" id="Layer_1" xmlns="http://www.w3.org/2000/svg" xmlns:xlink="http://www.w3.org/1999/xlink" x="0px" y="0px"
	 viewBox="0 0 100 100" style="enable-background:new 0 0 100 100;" xml:space="preserve">
<style type="text/css">
	.st0{fill:#FF5A5A;}
</style>
<circle class="st0" cx="50.9" cy="87.2" r="10.2"/>
<g>
	<g>
		<path class="st0" d="M52.4,84.4c0-27,0-53.9,0-80.9c0-1.9-3-1.9-3,0c0,27,0,53.9,0,80.9C49.4,86.3,52.4,86.3,52.4,84.4L52.4,84.4z
			"/>
	</g>
</g>
<g>
	<g>
		<path class="st0" d="M49.9,1.8C43.7,8,37.5,14.2,31.3,20.5c-1.4,1.4,0.8,3.5,2.1,2.1C39.6,16.4,45.8,10.2,52,4
			C53.4,2.6,51.2,0.5,49.9,1.8L49.9,1.8z"/>
	</g>
</g>
<g>
	<g>
		<path class="st0" d="M49.9,4c6.2,6.2,12.4,12.4,18.6,18.6c1.4,1.4,3.5-0.8,2.1-2.1C64.4,14.2,58.2,8,52,1.8
			C50.6,0.5,48.5,2.6,49.9,4L49.9,4z"/>
	</g>
</g>
</svg>
