<?xml version="1.0" encoding="utf-8"?>
<!-- Generator: Adobe Illustrator 19.2.1, SVG Export Plug-In . SVG Version: 6.00 Build 0)  -->
<svg version="1.1" id="Layer_1" xmlns="http://www.w3.org/2000/svg" xmlns:xlink="http://www.w3.org/1999/xlink" x="0px" y="0px"
	 viewBox="0 0 481.7 481.7" style="enable-background:new 0 0 481.7 481.7;" xml:space="preserve">
<style type="text/css">
	.st0{fill:#FF5A5A;}
	.st1{display:none;}
	.st2{display:inline;}
	.st3{fill:#FFFFFF;}
</style>
<g id="_x23_121819">
	<g>
		<g>
			<path class="st0" d="M201.8,12c301.9,0,301.9,460,0,460H46.6c0-153.3,0-306.7,0-460H201.8z M201.8,461.9
				c288.9,0,288.9-440.1,0-440.1H56.4c0,142.7,0,297.4,0,440.1H201.8z"/>
		</g>
		<g>
			<path class="st0" d="M247.1,220c-2.7-12.7-8-23.6-16.7-33.4c-18.8-20.2-49.3-28.7-76.9-28.1c-28.9,0.5-62.1,10.9-80.4,35.3
				c-10.9,13.5-14.9,30-13.5,47c8,107.7,180.7,23.3,201.9,121.8c14.1,65-48,103.7-106.4,103.7c-44.8,0-99.5-22.8-104.5-72.4
				l-0.5-5.8l4.5-0.8l0.5,3.2c4.8,46.2,58.9,69.5,100.8,69.5c53.6,0,111.7-34.8,99-95.8c-19.9-91.5-193.4-8-201.3-122.6
				c-1.9-18.6,3.2-36.6,14.6-51.5c44.8-58.1,171.4-50.7,186.5,28.9l0.5,3.4l-6.6,1.3L247.1,220z"/>
		</g>
		<circle class="st0" cx="249.5" cy="221.6" r="26.5"/>
	</g>
</g>
<g id="_x23_FFFFFF" class="st1">
	<g class="st2">
		<g>
			<path class="st3" d="M230.1,147.9c113.8,0,113.8,173.4,0,173.4h-58.5c0-57.8,0-115.6,0-173.4H230.1z M230.1,317.5
				c108.9,0,108.9-165.9,0-165.9h-54.8c0,53.8,0,112.1,0,165.9H230.1z"/>
		</g>
		<g>
			<path class="st3" d="M247.2,226.3c-1-4.8-3-8.9-6.3-12.6c-7.1-7.6-18.6-10.8-29-10.6c-10.9,0.2-23.4,4.1-30.3,13.3
				c-4.1,5.1-5.6,11.3-5.1,17.7c3,40.6,68.1,8.8,76.1,45.9c5.3,24.5-18.1,39.1-40.1,39.1c-16.9,0-37.5-8.6-39.4-27.3l-0.2-2.2
				l1.7-0.3l0.2,1.2c1.8,17.4,22.2,26.2,38,26.2c20.2,0,42.1-13.1,37.3-36.1c-7.5-34.5-72.9-3-75.9-46.2c-0.7-7,1.2-13.8,5.5-19.4
				c16.9-21.9,64.6-19.1,70.3,10.9l0.2,1.3l-2.5,0.5L247.2,226.3z"/>
		</g>
		<circle class="st3" cx="248.1" cy="226.9" r="10"/>
	</g>
</g>
</svg>
